<?xml version="1.0" standalone="no"?>
<!DOCTYPE svg PUBLIC "-//W3C//DTD SVG 20010904//EN"
 "http://www.w3.org/TR/2001/REC-SVG-20010904/DTD/svg10.dtd">
<svg version="1.0" xmlns="http://www.w3.org/2000/svg"
 width="700.000000pt" height="700.000000pt" viewBox="0 0 700.000000 700.000000"
 preserveAspectRatio="xMidYMid meet">
<metadata>
Created by potrace 1.13, written by Peter Selinger 2001-2015
</metadata>
<g transform="translate(0.000000,700.000000) scale(0.100000,-0.100000)"
fill="#000000" stroke="none">
<path d="M3765 6986 c-148 -36 -280 -155 -330 -297 -8 -22 -89 -539 -180
-1147 -92 -609 -169 -1115 -173 -1125 -5 -12 -112 363 -300 1055 -163 599
-304 1097 -319 1128 -39 80 -126 163 -218 207 -68 32 -88 37 -173 41 -81 3
-108 1 -162 -18 -168 -56 -280 -182 -317 -354 -9 -45 -12 -91 -8 -126 3 -30
95 -424 204 -875 l198 -820 -51 -16 c-83 -26 -151 -58 -163 -78 -6 -10 -18
-57 -27 -104 -49 -262 -198 -563 -452 -916 -30 -42 -30 -64 -4 -261 40 -297
102 -594 181 -870 227 -789 580 -1263 1030 -1383 l84 -22 975 0 c768 0 988 3
1035 13 212 47 386 136 533 276 98 93 163 181 222 301 69 139 98 247 109 413
6 75 12 595 15 1156 4 986 4 1021 -15 1081 -10 35 -38 91 -61 125 -119 179
-356 247 -571 164 -11 -4 -16 10 -21 58 -7 75 -56 183 -110 244 -48 55 -128
108 -204 133 -81 28 -214 28 -292 1 -30 -10 -56 -17 -58 -15 -2 1 42 349 97
773 56 423 101 792 101 818 -1 285 -293 509 -575 440z m235 -214 c66 -33 114
-92 136 -168 l16 -56 -221 -1601 c-122 -881 -221 -1630 -221 -1663 0 -203 147
-385 351 -439 105 -28 224 -13 332 41 67 34 165 135 196 201 l23 51 42 -32
c23 -18 67 -43 97 -56 48 -22 68 -25 174 -25 115 0 123 1 189 33 39 18 89 49
113 68 l44 36 -3 -623 c-4 -615 -4 -625 -26 -699 -53 -174 -151 -327 -283
-438 -87 -74 -237 -152 -354 -185 l-80 -22 -955 0 c-1048 0 -994 -3 -1135 60
-436 192 -787 925 -940 1962 -35 233 -36 223 36 323 177 246 320 541 384 793
l28 107 41 11 c22 6 70 9 105 7 62 -4 66 -6 106 -50 52 -58 82 -144 97 -283
l11 -103 -57 -128 c-128 -286 -180 -487 -175 -667 4 -97 8 -119 31 -167 15
-30 42 -69 60 -87 46 -44 206 -91 368 -109 350 -39 584 -162 700 -367 55 -98
110 -121 168 -72 47 40 49 68 8 149 -93 188 -287 339 -540 421 -68 21 -165 42
-291 61 l-30 4 -38 218 c-21 119 -54 279 -73 354 l-34 138 46 97 46 98 -5 125
c-12 267 -102 458 -251 530 -37 17 -48 29 -55 58 -6 20 -98 402 -206 848 -142
590 -195 827 -195 870 1 136 104 247 244 261 102 10 208 -44 257 -132 19 -35
130 -428 369 -1305 188 -690 348 -1265 356 -1277 18 -28 81 -48 126 -39 78 14
58 -84 278 1380 110 729 206 1341 214 1359 29 71 108 137 191 158 48 13 126 1
185 -29z m455 -1996 c88 -41 149 -120 161 -208 8 -60 -171 -1328 -195 -1383
-62 -139 -233 -201 -367 -132 -88 45 -154 146 -154 236 0 61 182 1313 195
1345 19 46 79 112 119 133 78 40 167 44 241 9z m659 -417 c74 -27 140 -100
163 -178 16 -55 16 -60 -32 -400 -26 -189 -51 -358 -56 -376 -19 -68 -70 -127
-139 -163 -60 -31 -71 -34 -135 -30 -135 9 -230 93 -254 225 -14 72 81 727
114 793 63 125 206 179 339 129z"/>
<path d="M1400 818 c0 -25 -3 -29 -12 -20 -19 19 -55 14 -72 -10 -20 -28 -20
-57 -1 -85 13 -18 25 -22 65 -21 l50 1 0 84 c0 67 -3 83 -15 83 -10 0 -15 -10
-15 -32z"/>
<path d="M1530 766 l0 -83 50 -2 c40 0 52 3 65 21 34 50 0 115 -56 104 -26 -5
-29 -3 -29 19 0 16 -6 25 -15 25 -12 0 -15 -16 -15 -84z"/>
<path d="M2380 818 c0 -25 -3 -29 -12 -20 -19 19 -55 14 -72 -10 -20 -28 -20
-57 -1 -85 13 -18 25 -22 65 -21 l50 1 0 84 c0 67 -3 83 -15 83 -10 0 -15 -10
-15 -32z"/>
<path d="M2930 766 l0 -83 50 -2 c40 0 52 3 65 21 34 50 0 115 -56 104 -26 -5
-29 -3 -29 19 0 16 -6 25 -15 25 -12 0 -15 -16 -15 -84z"/>
</g>
</svg>
