<?xml version="1.0" standalone="no"?>
<!DOCTYPE svg PUBLIC "-//W3C//DTD SVG 20010904//EN"
 "http://www.w3.org/TR/2001/REC-SVG-20010904/DTD/svg10.dtd">
<svg version="1.0" xmlns="http://www.w3.org/2000/svg"
 width="700.000000pt" height="700.000000pt" viewBox="0 0 700.000000 700.000000"
 preserveAspectRatio="xMidYMid meet">
<metadata>
Created by potrace 1.13, written by Peter Selinger 2001-2015
</metadata>
<g transform="translate(0.000000,700.000000) scale(0.100000,-0.100000)"
fill="#000000" stroke="none">
<path d="M3456 5634 c-131 -32 -254 -130 -312 -251 -22 -45 -30 -82 -37 -168
l-10 -110 -56 27 c-81 39 -176 54 -262 41 -149 -23 -288 -123 -352 -252 -32
-65 -32 -67 -35 -233 -2 -92 -7 -168 -11 -168 -4 0 -24 18 -45 39 -21 22 -66
52 -100 67 -87 40 -204 40 -326 -2 -89 -30 -126 -56 -134 -96 -21 -111 -63
-261 -96 -348 -72 -185 -210 -427 -337 -593 -25 -32 -48 -70 -52 -84 -12 -45
25 -322 80 -603 127 -646 334 -1161 596 -1482 149 -183 339 -313 536 -368 138
-39 314 -45 1217 -45 l855 0 100 28 c388 106 664 384 778 785 l22 77 -1 1386
c-1 1382 -1 1386 -22 1455 -27 86 -55 132 -122 200 -128 129 -325 169 -490
100 -101 -42 -96 -43 -104 1 -3 21 -17 61 -29 88 -111 235 -386 333 -622 221
l-70 -33 -34 71 c-61 128 -181 222 -318 251 -83 18 -130 18 -207 -1z m217
-203 c56 -24 113 -81 141 -140 21 -46 21 -48 19 -915 l-2 -869 -26 -53 c-97
-198 -372 -198 -478 0 l-22 41 -3 882 c-2 862 -2 884 17 922 52 101 132 151
242 151 44 0 83 -7 112 -19z m722 -255 c62 -28 111 -77 139 -136 21 -44 21
-56 24 -714 3 -775 6 -743 -82 -831 -79 -79 -167 -101 -272 -70 -64 19 -127
73 -162 139 l-27 51 -3 669 c-3 755 -5 736 70 821 82 93 206 121 313 71z
m-1455 -208 c46 -17 100 -60 130 -106 l30 -45 0 -528 0 -527 -32 -48 c-41 -62
-120 -110 -193 -119 -108 -14 -227 50 -274 148 -20 42 -21 57 -21 545 0 550
-1 535 60 606 71 81 196 112 300 74z m2186 -119 c24 -12 62 -42 84 -67 67 -75
70 -98 70 -498 0 -328 -1 -357 -20 -406 -21 -58 -82 -124 -139 -153 -126 -64
-301 2 -362 137 -24 52 -24 59 -27 397 -3 380 1 424 51 498 33 50 116 108 166
116 47 9 131 -3 177 -24z m-2945 -412 c75 -50 118 -162 126 -327 l5 -105 -45
-100 c-208 -463 -239 -782 -92 -929 42 -42 235 -101 385 -116 191 -20 292 -49
432 -122 103 -53 209 -155 262 -249 25 -46 46 -71 66 -79 63 -26 130 19 130
88 0 49 -65 155 -148 245 -145 154 -378 264 -637 301 l-80 12 -3 211 -2 212
57 -29 c136 -68 282 -67 419 3 l52 26 12 -45 c29 -102 130 -219 237 -272 141
-71 289 -68 434 10 54 28 142 109 166 152 9 17 13 16 62 -19 70 -50 142 -76
231 -82 147 -10 267 35 367 140 63 65 92 113 113 184 l13 42 41 -24 c131 -75
313 -74 452 4 l55 32 -3 -833 c-4 -827 -4 -834 -26 -913 -90 -322 -328 -556
-649 -638 -88 -22 -92 -22 -893 -22 -827 0 -1033 7 -1160 40 -414 107 -742
617 -949 1475 -44 181 -92 441 -116 620 l-14 115 25 35 c197 268 358 587 424
844 33 129 40 135 151 136 53 0 73 -5 100 -23z m205 -1334 c-8 -19 -78 9 -94
38 -9 17 -12 56 -9 139 5 118 26 209 79 345 l23 60 3 -285 c1 -157 0 -290 -2
-297z"/>
<path d="M1400 818 c0 -25 -3 -29 -12 -20 -19 19 -55 14 -72 -10 -20 -28 -20
-57 -1 -85 13 -18 25 -22 65 -21 l50 1 0 84 c0 67 -3 83 -15 83 -10 0 -15 -10
-15 -32z"/>
<path d="M1530 766 l0 -83 50 -2 c40 0 52 3 65 21 34 50 0 115 -56 104 -26 -5
-29 -3 -29 19 0 16 -6 25 -15 25 -12 0 -15 -16 -15 -84z"/>
<path d="M2380 818 c0 -25 -3 -29 -12 -20 -19 19 -55 14 -72 -10 -20 -28 -20
-57 -1 -85 13 -18 25 -22 65 -21 l50 1 0 84 c0 67 -3 83 -15 83 -10 0 -15 -10
-15 -32z"/>
<path d="M2930 766 l0 -83 50 -2 c40 0 52 3 65 21 34 50 0 115 -56 104 -26 -5
-29 -3 -29 19 0 16 -6 25 -15 25 -12 0 -15 -16 -15 -84z"/>
</g>
</svg>
