<?xml version="1.0" standalone="no"?>
<!DOCTYPE svg PUBLIC "-//W3C//DTD SVG 20010904//EN"
 "http://www.w3.org/TR/2001/REC-SVG-20010904/DTD/svg10.dtd">
<svg version="1.0" xmlns="http://www.w3.org/2000/svg"
 width="700.000000pt" height="700.000000pt" viewBox="0 0 700.000000 700.000000"
 preserveAspectRatio="xMidYMid meet">
<metadata>
Created by potrace 1.13, written by Peter Selinger 2001-2015
</metadata>
<g transform="translate(0.000000,700.000000) scale(0.100000,-0.100000)"
fill="#000000" stroke="none">
<path d="M3466 6899 c-107 -25 -233 -118 -293 -215 -38 -63 -63 -158 -63 -241
0 -56 -3 -74 -12 -70 -106 47 -151 61 -213 65 -195 13 -369 -89 -453 -265
l-37 -78 -3 -787 c-1 -434 -6 -788 -10 -788 -4 0 -25 18 -46 39 -21 22 -66 52
-100 67 -87 40 -204 40 -326 -2 -89 -30 -126 -56 -134 -96 -55 -289 -158 -535
-337 -801 -49 -72 -103 -151 -120 -174 -39 -52 -40 -83 -4 -332 125 -865 389
-1555 729 -1904 140 -144 306 -245 476 -290 l85 -22 985 0 985 0 100 28 c391
107 672 393 778 791 l22 81 0 1855 0 1855 -23 58 c-48 118 -153 223 -270 268
-115 44 -283 35 -380 -22 -18 -10 -35 -19 -38 -19 -2 0 -4 78 -4 173 0 246
-28 337 -139 447 -142 142 -356 177 -535 86 l-62 -31 -33 70 c-40 83 -124 171
-199 209 -101 51 -226 68 -326 45z m231 -215 c59 -28 96 -68 127 -134 21 -45
21 -51 26 -1423 l5 -1379 24 -19 c37 -30 96 -25 132 10 l29 29 0 1265 0 1265
33 48 c47 70 112 108 197 112 125 7 224 -49 273 -156 l22 -47 2 -1290 c2
-1011 6 -1295 15 -1314 16 -30 64 -51 101 -44 15 3 38 19 52 35 l25 30 0 965
c0 1085 -6 999 78 1073 110 97 262 91 368 -15 92 -92 85 85 82 -1961 l-3
-1799 -23 -80 c-91 -322 -329 -556 -649 -638 l-88 -22 -945 0 c-1052 0 -993
-4 -1145 69 -437 208 -776 937 -930 2000 l-26 179 27 36 c196 266 358 590 424
845 26 100 31 112 57 123 40 17 148 16 184 -2 76 -40 128 -168 136 -335 l5
-105 -52 -115 c-60 -133 -132 -342 -156 -450 -23 -104 -23 -290 0 -350 21 -57
61 -114 92 -135 47 -31 256 -87 359 -96 182 -17 362 -72 496 -150 93 -54 204
-165 247 -247 50 -93 116 -116 170 -59 47 51 34 111 -52 231 -152 212 -417
355 -754 407 l-82 12 2 1501 3 1501 22 40 c33 62 103 121 164 139 65 20 93 20
153 2 68 -21 118 -57 154 -112 l32 -47 0 -1084 0 -1085 29 -29 c46 -45 117
-35 146 20 13 27 15 174 15 1309 0 1426 -5 1330 70 1415 85 96 208 119 327 61z
m-1317 -3308 l0 -285 -37 13 c-21 7 -44 24 -50 37 -17 33 -16 179 2 264 15 72
73 255 81 255 2 0 4 -128 4 -284z"/>
<path d="M1400 818 c0 -25 -3 -29 -12 -20 -19 19 -55 14 -72 -10 -20 -28 -20
-57 -1 -85 13 -18 25 -22 65 -21 l50 1 0 84 c0 67 -3 83 -15 83 -10 0 -15 -10
-15 -32z"/>
<path d="M1530 766 l0 -83 50 -2 c40 0 52 3 65 21 34 50 0 115 -56 104 -26 -5
-29 -3 -29 19 0 16 -6 25 -15 25 -12 0 -15 -16 -15 -84z"/>
<path d="M2380 818 c0 -25 -3 -29 -12 -20 -19 19 -55 14 -72 -10 -20 -28 -20
-57 -1 -85 13 -18 25 -22 65 -21 l50 1 0 84 c0 67 -3 83 -15 83 -10 0 -15 -10
-15 -32z"/>
<path d="M2930 766 l0 -83 50 -2 c40 0 52 3 65 21 34 50 0 115 -56 104 -26 -5
-29 -3 -29 19 0 16 -6 25 -15 25 -12 0 -15 -16 -15 -84z"/>
</g>
</svg>
